<svg xmlns="http://www.w3.org/2000/svg" xmlns:xlink="http://www.w3.org/1999/xlink" width="500" zoomAndPan="magnify" viewBox="0 0 375 374.999991" height="500" preserveAspectRatio="xMidYMid meet" version="1.0"><defs><clipPath id="2463830613"><path d="M 28.414062 162 L 81 162 L 81 213 L 28.414062 213 Z M 28.414062 162 " clip-rule="nonzero"/></clipPath><clipPath id="416579a75a"><path d="M 164 28.414062 L 210 28.414062 L 210 79 L 164 79 Z M 164 28.414062 " clip-rule="nonzero"/></clipPath><clipPath id="58e9395577"><path d="M 156 297 L 219 297 L 219 346.414062 L 156 346.414062 Z M 156 297 " clip-rule="nonzero"/></clipPath></defs><path fill="#ffbc5e" d="M 241 191.921875 L 275.167969 191.921875 C 274.503906 205.699219 270.640625 219.371094 263.507812 231.742188 C 251.144531 253.144531 230.492188 267.75 206.964844 273.09375 C 227.785156 251.191406 239.96875 222.324219 241 191.921875 Z M 191.566406 191.921875 L 232.488281 191.921875 C 231.300781 223.988281 216.960938 254.558594 192.5625 275.542969 C 192.230469 275.5625 191.902344 275.625 191.566406 275.625 Z M 142.027344 191.921875 L 183.046875 191.921875 L 183.046875 275.230469 C 182.710938 275.214844 182.382812 275.171875 182.050781 275.152344 C 157.652344 254.160156 143.210938 223.988281 142.027344 191.921875 Z M 99.320312 191.921875 L 133.503906 191.921875 C 134.546875 222.324219 146.703125 251.1875 167.542969 273.09375 C 144.015625 267.753906 123.363281 253.144531 110.996094 231.742188 C 103.871094 219.371094 99.984375 205.699219 99.320312 191.921875 Z M 206.964844 102.230469 C 230.488281 107.574219 251.144531 122.179688 263.507812 143.582031 C 270.640625 155.957031 274.503906 169.625 275.167969 183.402344 L 241 183.402344 C 239.945312 153.003906 227.785156 124.136719 206.964844 102.230469 Z M 167.542969 102.230469 C 146.71875 124.136719 134.542969 153.003906 133.503906 183.402344 L 99.320312 183.402344 C 99.984375 169.625 103.875 155.953125 111 143.582031 C 123.363281 122.179688 144.019531 107.574219 167.542969 102.230469 Z M 183.046875 100.09375 L 183.046875 183.402344 L 142.027344 183.402344 C 143.210938 151.355469 157.652344 121.160156 182.050781 100.171875 C 182.382812 100.152344 182.710938 100.109375 183.046875 100.09375 Z M 191.566406 99.636719 C 191.921875 99.65625 192.253906 99.691406 192.585938 99.71875 C 216.960938 120.707031 231.300781 151.359375 232.488281 183.40625 L 191.566406 183.40625 Z M 187.179688 91.027344 C 152.722656 91.070312 120.867188 109.484375 103.640625 139.339844 C 86.390625 169.230469 86.390625 206.089844 103.640625 235.976562 C 120.804688 265.691406 149.089844 284.066406 187.242188 284.144531 C 225.414062 284.066406 253.699219 265.691406 270.863281 235.976562 C 288.109375 206.089844 288.109375 169.230469 270.863281 139.339844 C 253.617188 109.484375 221.777344 91.070312 187.320312 91.027344 C 187.300781 91.027344 187.257812 91.027344 187.238281 91.027344 C 187.214844 91.027344 187.199219 91.027344 187.179688 91.027344 Z M 187.179688 91.027344 " fill-opacity="1" fill-rule="nonzero"/><g clip-path="url(#2463830613)"><path fill="#ffbc5e" d="M 66.09375 201.707031 L 73.492188 201.707031 C 73.890625 201.707031 74.074219 202.023438 74.074219 202.730469 L 74.074219 206.71875 C 74.074219 207.421875 73.886719 207.738281 73.492188 207.738281 L 66.09375 207.738281 C 65.695312 207.738281 65.511719 207.421875 65.511719 206.71875 L 65.511719 202.730469 C 65.507812 202.023438 65.695312 201.707031 66.09375 201.707031 Z M 50.777344 201.707031 L 58.171875 201.707031 C 58.570312 201.707031 58.757812 202.023438 58.757812 202.730469 L 58.757812 206.71875 C 58.757812 207.421875 58.570312 207.738281 58.171875 207.738281 L 50.777344 207.738281 C 50.382812 207.738281 50.195312 207.421875 50.195312 206.71875 L 50.195312 202.730469 C 50.195312 202.023438 50.382812 201.707031 50.777344 201.707031 Z M 35.457031 201.707031 L 42.855469 201.707031 C 43.25 201.707031 43.4375 202.023438 43.4375 202.730469 L 43.4375 206.71875 C 43.4375 207.421875 43.25 207.738281 42.855469 207.738281 L 35.457031 207.738281 C 35.0625 207.738281 34.875 207.421875 34.875 206.71875 L 34.875 202.730469 C 34.875 202.023438 35.0625 201.707031 35.457031 201.707031 Z M 59.253906 177.5625 L 71.867188 177.5625 C 73.386719 177.5625 74.074219 178.246094 74.074219 179.722656 L 74.074219 195.453125 C 74.074219 196.933594 73.386719 197.597656 71.867188 197.597656 L 59.253906 197.597656 C 57.738281 197.597656 57.050781 196.933594 57.050781 195.453125 L 57.050781 179.722656 C 57.050781 178.246094 57.738281 177.5625 59.253906 177.5625 Z M 37.078125 177.5625 L 49.695312 177.5625 C 51.210938 177.5625 51.898438 178.246094 51.898438 179.722656 L 51.898438 195.453125 C 51.898438 196.933594 51.210938 197.597656 49.695312 197.597656 L 37.078125 197.597656 C 35.5625 197.597656 34.875 196.933594 34.875 195.453125 L 34.875 179.722656 C 34.875 178.246094 35.5625 177.5625 37.078125 177.5625 Z M 66.09375 167.441406 L 73.492188 167.441406 C 73.890625 167.441406 74.074219 167.753906 74.074219 168.460938 L 74.074219 172.449219 C 74.074219 173.136719 73.886719 173.472656 73.492188 173.472656 L 66.09375 173.472656 C 65.695312 173.472656 65.511719 173.136719 65.511719 172.449219 L 65.511719 168.460938 C 65.507812 167.753906 65.695312 167.441406 66.09375 167.441406 Z M 50.777344 167.441406 L 58.171875 167.441406 C 58.570312 167.441406 58.757812 167.753906 58.757812 168.460938 L 58.757812 172.449219 C 58.757812 173.136719 58.570312 173.472656 58.171875 173.472656 L 50.777344 173.472656 C 50.382812 173.472656 50.195312 173.136719 50.195312 172.449219 L 50.195312 168.460938 C 50.195312 167.753906 50.382812 167.441406 50.777344 167.441406 Z M 35.457031 167.441406 L 42.855469 167.441406 C 43.25 167.441406 43.4375 167.753906 43.4375 168.460938 L 43.4375 172.449219 C 43.4375 173.136719 43.25 173.472656 42.855469 173.472656 L 35.457031 173.472656 C 35.0625 173.472656 34.875 173.136719 34.875 172.449219 L 34.875 168.460938 C 34.875 167.753906 35.0625 167.441406 35.457031 167.441406 Z M 34.128906 162.996094 C 30.308594 162.996094 28.558594 164.65625 28.558594 168.273438 L 28.558594 206.886719 C 28.558594 210.519531 30.308594 212.1875 34.128906 212.1875 L 74.820312 212.1875 C 78.640625 212.1875 80.390625 210.519531 80.390625 206.886719 L 80.390625 168.273438 C 80.390625 164.65625 78.640625 162.996094 74.820312 162.996094 Z M 34.128906 162.996094 " fill-opacity="1" fill-rule="nonzero"/></g><g clip-path="url(#416579a75a)"><path fill="#ffbc5e" d="M 187.246094 28.898438 C 183.628906 28.898438 180.136719 30.328125 177.5625 32.910156 C 174.984375 35.460938 173.546875 38.953125 173.546875 42.59375 C 173.546875 46.769531 175.457031 50.738281 178.746094 53.332031 C 180.46875 55.230469 179.597656 56.726562 178.078125 57.308594 C 170.410156 59.007812 164.78125 65.015625 164.78125 73.304688 L 164.78125 75.066406 C 164.78125 77.007812 165.03125 78.085938 167.792969 78.085938 L 206.714844 78.085938 C 209.480469 78.085938 209.707031 77.007812 209.707031 75.066406 L 209.707031 73.304688 C 209.707031 65.015625 204.097656 58.988281 196.429688 57.308594 C 194.914062 56.726562 194.039062 55.25 195.722656 53.378906 C 199.027344 50.78125 200.960938 46.789062 200.960938 42.59375 C 200.960938 38.953125 199.511719 35.460938 196.953125 32.910156 C 194.371094 30.328125 190.878906 28.898438 187.246094 28.898438 Z M 187.246094 28.898438 " fill-opacity="1" fill-rule="nonzero"/></g><path fill="#ffbc5e" d="M 309.515625 189.238281 L 309.515625 209.273438 C 309.515625 209.816406 309.621094 209.773438 310.121094 209.941406 L 318.597656 212.558594 C 319.53125 212.828125 320.363281 212.890625 321.300781 212.890625 L 333.980469 212.890625 C 338.53125 212.890625 341.1875 211.789062 342.058594 207.402344 L 345.78125 188.660156 C 346.382812 185.753906 345.53125 180.910156 340.378906 180.910156 L 332.398438 180.910156 C 330.074219 180.910156 329.449219 179.699219 329.804688 177.980469 L 330.824219 172.84375 C 331.925781 167.320312 327.597656 162.335938 324.570312 162.292969 C 321.535156 162.246094 322.285156 165.800781 321.367188 170.390625 C 320.453125 174.988281 313.472656 183.613281 311.851562 185.609375 L 309.8125 188.308594 C 309.539062 188.636719 309.515625 188.824219 309.515625 189.238281 Z M 309.515625 189.238281 " fill-opacity="1" fill-rule="nonzero"/><path fill="#ffbc5e" d="M 298.382812 210.335938 C 296.90625 210.335938 295.71875 209.589844 295.71875 208.171875 L 295.71875 190.242188 C 295.71875 188.824219 296.90625 188.097656 298.382812 188.097656 L 302.871094 188.097656 C 304.34375 188.097656 305.527344 188.824219 305.527344 190.242188 L 305.527344 208.171875 C 305.527344 209.585938 304.34375 210.335938 302.871094 210.335938 Z M 298.382812 210.335938 " fill-opacity="1" fill-rule="nonzero"/><g clip-path="url(#58e9395577)"><path fill="#ffbc5e" d="M 195.472656 309.734375 C 196.699219 309.734375 197.984375 310.210938 198.566406 311.269531 L 209.792969 331.980469 C 211.308594 334.792969 210.808594 338.300781 206.898438 338.28125 L 166.523438 338.28125 C 163.757812 338.28125 163.410156 335.785156 164.507812 333.8125 L 172.464844 319.117188 C 172.859375 318.371094 173.773438 318.035156 174.648438 318.035156 C 175.503906 318.035156 176.4375 318.371094 176.832031 319.132812 L 184.207031 332.789062 C 185.515625 335.300781 189.28125 333.328125 187.949219 330.816406 L 184.917969 325.019531 L 192.398438 311.261719 C 192.976562 310.210938 194.269531 309.734375 195.472656 309.734375 Z M 181.777344 304.074219 C 184.441406 304.074219 186.578125 306.21875 186.578125 308.859375 C 186.578125 311.519531 184.441406 313.660156 181.777344 313.660156 C 179.140625 313.660156 177.003906 311.5 177.003906 308.859375 C 177.003906 306.21875 179.140625 304.074219 181.777344 304.074219 Z M 162.851562 297.097656 C 159.148438 297.097656 156.179688 300.167969 156.179688 303.976562 L 156.179688 339.429688 C 156.179688 343.230469 159.148438 346.285156 162.851562 346.285156 L 211.664062 346.285156 C 215.363281 346.285156 218.335938 343.230469 218.335938 339.429688 L 218.335938 303.976562 C 218.335938 300.167969 215.363281 297.097656 211.664062 297.097656 Z M 162.851562 297.097656 " fill-opacity="1" fill-rule="nonzero"/></g><path fill="#ffbc5e" d="M 272.609375 263.785156 C 267 270.539062 266.648438 281.757812 274.253906 289.386719 C 274.292969 289.421875 274.335938 289.472656 274.378906 289.511719 L 294.410156 306.738281 C 295.242188 307.464844 296.488281 307.464844 297.339844 306.738281 L 317.351562 289.511719 C 317.417969 289.472656 317.457031 289.425781 317.496094 289.386719 C 325.082031 281.757812 324.75 270.539062 319.140625 263.785156 C 316.105469 260.144531 311.472656 258.007812 306.671875 258.113281 C 302.703125 258.195312 298.878906 260.398438 295.863281 264.015625 C 292.851562 260.398438 289.027344 258.199219 284.664062 258.113281 C 280.277344 258.007812 275.625 260.144531 272.609375 263.785156 Z M 272.609375 263.785156 " fill-opacity="1" fill-rule="nonzero"/><path fill="#ffbc5e" d="M 78.097656 258.089844 C 75.730469 258.089844 75.042969 260.371094 73.84375 262.496094 L 73.09375 263.785156 L 59.417969 263.785156 C 55.804688 263.785156 52.890625 266.792969 52.890625 270.519531 L 52.890625 300.542969 C 52.890625 304.28125 55.800781 307.296875 59.417969 307.296875 L 107.234375 307.296875 C 110.847656 307.296875 113.757812 304.28125 113.757812 300.542969 L 113.757812 270.519531 C 113.757812 266.792969 110.847656 263.785156 107.234375 263.785156 L 93.554688 263.785156 L 92.804688 262.496094 C 91.601562 260.371094 90.914062 258.089844 88.550781 258.089844 Z M 83.316406 274.195312 C 89.820312 274.195312 95.101562 279.472656 95.101562 285.976562 C 95.101562 292.484375 89.820312 297.761719 83.316406 297.761719 C 76.816406 297.761719 71.554688 292.484375 71.554688 285.976562 C 71.554688 279.472656 76.816406 274.195312 83.316406 274.195312 Z M 83.316406 274.195312 " fill-opacity="1" fill-rule="nonzero"/><path fill="#ffbc5e" d="M 95.351562 93.730469 C 92.714844 93.730469 90.570312 91.59375 90.570312 88.957031 C 90.570312 86.320312 92.714844 84.195312 95.351562 84.195312 C 97.988281 84.195312 100.109375 86.320312 100.109375 88.957031 C 100.109375 91.59375 97.988281 93.730469 95.351562 93.730469 Z M 81.445312 93.730469 C 78.808594 93.730469 76.667969 91.59375 76.667969 88.957031 C 76.667969 86.320312 78.808594 84.195312 81.445312 84.195312 C 84.085938 84.195312 86.226562 86.320312 86.226562 88.957031 C 86.226562 91.59375 84.085938 93.730469 81.445312 93.730469 Z M 67.546875 93.730469 C 64.910156 93.730469 62.789062 91.59375 62.789062 88.957031 C 62.789062 86.320312 64.910156 84.195312 67.546875 84.195312 C 70.183594 84.195312 72.324219 86.320312 72.324219 88.957031 C 72.324219 91.59375 70.183594 93.730469 67.546875 93.730469 Z M 99.195312 67.90625 L 63.699219 67.90625 C 57.695312 67.90625 52.894531 72.265625 52.894531 78.167969 L 52.894531 100.011719 C 52.894531 105.890625 57.695312 110.402344 63.699219 110.402344 L 67.234375 110.402344 L 68.960938 115.472656 C 69.523438 117.054688 71.832031 117.617188 73.074219 116.511719 L 80.097656 110.402344 L 99.199219 110.402344 C 105.203125 110.402344 110.085938 105.890625 110.085938 100.011719 L 110.085938 78.167969 C 110.082031 72.265625 105.199219 67.90625 99.195312 67.90625 Z M 99.195312 67.90625 " fill-opacity="1" fill-rule="nonzero"/><path fill="#ffbc5e" d="M 310.578125 72.472656 C 312.410156 72.265625 314.714844 78.9375 315.691406 87.394531 C 316.6875 95.875 316 102.898438 314.171875 103.105469 C 312.800781 103.273438 311.136719 99.574219 309.953125 93.796875 C 312.160156 92.609375 313.402344 90.199219 313.113281 87.707031 C 312.820312 85.21875 311.035156 83.183594 308.625 82.535156 C 308.441406 76.625 309.207031 72.636719 310.578125 72.472656 Z M 311.621094 65.886719 C 310.105469 65.984375 308.691406 66.445312 307.648438 67.152344 C 302 71.097656 294.183594 74.964844 286.746094 77.105469 C 285.871094 86.1875 287.433594 96.722656 290.734375 104.1875 C 298.261719 104.601562 306.429688 106.386719 312.578125 108.964844 C 314.175781 109.632812 315.050781 109.484375 316.734375 109.277344 C 320.207031 108.882812 321.765625 98.886719 320.351562 86.851562 C 318.933594 74.839844 315.109375 65.632812 311.621094 65.886719 Z M 311.621094 65.886719 " fill-opacity="1" fill-rule="evenodd"/><path fill="#ffbc5e" d="M 283.046875 78.019531 C 281.46875 78.375 279.90625 78.617188 278.433594 78.769531 L 270.390625 79.703125 C 266.316406 80.097656 263.65625 86.789062 264.28125 93.453125 C 265.214844 100.066406 269.355469 105.945312 273.425781 105.40625 L 275.460938 105.15625 L 281.050781 119.179688 C 281.550781 120.429688 282.613281 120.992188 284.019531 120.824219 L 292.4375 119.824219 C 294.410156 119.597656 295.054688 118.140625 294.390625 116.5 L 292.683594 112.199219 C 292.269531 111.140625 291.789062 110.761719 290.8125 110.074219 L 288.589844 108.535156 C 283.8125 97.554688 282.382812 87.441406 283.046875 78.019531 Z M 283.046875 78.019531 " fill-opacity="1" fill-rule="evenodd"/></svg>